<?xml version="1.0" encoding="utf-8"?>
<!-- Generator: Adobe Illustrator 22.1.0, SVG Export Plug-In . SVG Version: 6.00 Build 0)  -->
<svg version="1.1" id="Calque_1" xmlns="http://www.w3.org/2000/svg" xmlns:xlink="http://www.w3.org/1999/xlink" x="0px" y="0px"
	 viewBox="0 0 48 60" style="enable-background:new 0 0 48 60;" xml:space="preserve">
<style type="text/css">
	.st0{enable-background:new    ;}
</style>
<title>space_21</title>
<path d="M33.4,46.6c0.2,0.5,0,1.1-0.5,1.3C32.8,48,32.6,48,32.5,48c-0.4,0-0.7-0.2-0.9-0.6l-6-12.8c-1,0.5-2.2,0.5-3.3,0l-6,12.8
	c-0.2,0.4-0.5,0.6-0.9,0.6c-0.1,0-0.3,0-0.4-0.1c-0.5-0.2-0.7-0.8-0.5-1.3c0,0,0,0,0,0l6.2-13.2c-1.3-1.8-0.9-4.3,0.9-5.6
	s4.3-0.9,5.6,0.9c1,1.4,1,3.3,0,4.7L33.4,46.6z M41.7,0.7c-0.2-0.6-0.9-0.9-1.5-0.7L38,1c-0.6,0.2-0.9,0.9-0.7,1.5l6.2,15.8
	c0.2,0.6,0.9,0.9,1.5,0.7c0,0,0,0,0,0l2.3-0.9c0.6-0.2,0.9-0.9,0.7-1.5L41.7,0.7z M4.4,17.7c-0.2-0.6-1-0.9-1.6-0.7c0,0,0,0,0,0
	l-2.1,0.8c-0.6,0.2-0.9,1-0.7,1.6c0,0,0,0,0,0l4.6,11.7c0.2,0.6,0.9,0.9,1.6,0.7c0,0,0,0,0,0L8.3,31c0.6-0.2,0.9-0.9,0.7-1.6
	c0,0,0,0,0,0L4.4,17.7z M6.1,16.6c0.1,0.1,0.1,0.2,0.2,0.4l4.6,11.6c0,0.1,0.1,0.3,0.1,0.4l30.6-10.3l-6-15.3L6.1,16.6z"/>
</svg>
