<?xml version="1.0" encoding="utf-8"?>
<!-- Generator: Adobe Illustrator 22.1.0, SVG Export Plug-In . SVG Version: 6.00 Build 0)  -->
<svg version="1.1" id="Calque_1" xmlns="http://www.w3.org/2000/svg" xmlns:xlink="http://www.w3.org/1999/xlink" x="0px" y="0px"
	 viewBox="0 0 384 390" style="enable-background:new 0 0 384 390;" xml:space="preserve">
<g>
	<path d="M347,269V0c-54,5-96,17-146,37v268C251,285,294,274,347,269z"/>
	<path d="M384,38h-21v240c0,3-2,6-6,7c-47,4-86,10-130,27h157V38z"/>
	<path d="M37,0v269c53,5,96,16,146,36V37C132,16,91,5,37,0z"/>
	<path d="M0,38v274h157c-42-17-84-23-130-27c-4-1-6-4-6-7V38H0z"/>
</g>
</svg>
