<?xml version="1.0" encoding="utf-8"?>
<!-- Generator: Adobe Illustrator 22.1.0, SVG Export Plug-In . SVG Version: 6.00 Build 0)  -->
<svg version="1.1"
	 id="Calque_1" xmlns:cc="http://creativecommons.org/ns#" xmlns:dc="http://purl.org/dc/elements/1.1/" xmlns:inkscape="http://www.inkscape.org/namespaces/inkscape" xmlns:rdf="http://www.w3.org/1999/02/22-rdf-syntax-ns#" xmlns:sodipodi="http://sodipodi.sourceforge.net/DTD/sodipodi-0.dtd" xmlns:svg="http://www.w3.org/2000/svg"
	 xmlns="http://www.w3.org/2000/svg" xmlns:xlink="http://www.w3.org/1999/xlink" x="0px" y="0px" viewBox="0 0 100 125"
	 style="enable-background:new 0 0 100 125;" xml:space="preserve">
<g transform="translate(0,-952.36218)">
	<path d="M53,969.4c-7.8,0-14,6.2-14,14s6.2,14,14,14s14-6.2,14-14S60.8,969.4,53,969.4z M24,977.4c-5.5,0-10,4.5-10,10
		c0,5.5,4.5,10,10,10s10-4.5,10-10C34,981.8,29.5,977.4,24,977.4z M10,1002.4v32h60v-32H10z M90,1002.6l-16,8.3v14.8l16,8.3V1002.6z
		"/>
</g>
</svg>
