<?xml version="1.0" encoding="utf-8"?>
<!-- Generator: Adobe Illustrator 22.1.0, SVG Export Plug-In . SVG Version: 6.00 Build 0)  -->
<svg version="1.1" id="Calque_1" xmlns="http://www.w3.org/2000/svg" xmlns:xlink="http://www.w3.org/1999/xlink" x="0px" y="0px"
	 viewBox="0 0 66 82.5" style="enable-background:new 0 0 66 82.5;" xml:space="preserve">
<g>
	<polygon points="7.5,16.9 6.8,14.4 11.4,13.2 12.3,16.9 	"/>
	<path d="M12.8,11.1L12.2,1H17v18.6c-0.7-1.2-1.1-2.1-1.1-2.1c-0.4-0.8-1.2-0.6-1.3-0.6l-1.3-5.2C13.1,11.4,13,11.3,12.8,11.1z"/>
	<path d="M19.2,22.8v-7.6H24v12.7C21.3,25.7,19.4,23.1,19.2,22.8z"/>
	<path d="M23.2,13.1l-0.5-7.6h4.8v5.1c-0.1,0.2-0.2,0.4-0.2,0.6l1.1,19.3c-0.8-0.3-1.5-0.6-2.3-1.1V14.1c0-0.6-0.5-1.1-1.1-1.1
		L23.2,13.1L23.2,13.1z"/>
	<path d="M30.6,31l-1-16.5v-2.3h4.6v18.8C33,31.2,31.8,31.2,30.6,31z"/>
	<path d="M33.4,10L33,3.2h4.8v17.1h-1c-0.1,0-0.2,0-0.3,0.1v-9.3c0-0.6-0.5-1.1-1.1-1.1H33.4z"/>
	<path d="M38.3,29.5l-0.4-7h4.5l0.2,3.7v0C41.2,27.6,39.7,28.7,38.3,29.5z"/>
	<path d="M44.5,20.6l-1-17.4h4.8v16.3c-1.1,1.6-2.3,3.1-3.4,4.4v-2.5C44.8,21.1,44.7,20.8,44.5,20.6z"/>
	<path d="M51.1,19h6.4l-6.4,46c-2.8-1.2-9.9-3.7-18.9-3.7c-6.3,0-12.3,1.2-18,3.7L6.2,19h8.1c3.1,5.8,8.6,12.4,15.1,13.9
		c2.1,0.5,4.2,0.5,6.3-0.1c6.1-1.7,11-7.1,14.6-12.4C50.5,20,50.8,19.5,51.1,19z"/>
	<polygon points="59.8,11.8 58.2,16.9 53.6,16.9 55.3,10.3 	"/>
</g>
</svg>
