<?xml version="1.0" encoding="utf-8"?>
<!-- Generator: Adobe Illustrator 22.1.0, SVG Export Plug-In . SVG Version: 6.00 Build 0)  -->
<svg version="1.1"
	 id="Calque_1" xmlns:cc="http://creativecommons.org/ns#" xmlns:dc="http://purl.org/dc/elements/1.1/" xmlns:inkscape="http://www.inkscape.org/namespaces/inkscape" xmlns:rdf="http://www.w3.org/1999/02/22-rdf-syntax-ns#" xmlns:sodipodi="http://sodipodi.sourceforge.net/DTD/sodipodi-0.dtd" xmlns:svg="http://www.w3.org/2000/svg"
	 xmlns="http://www.w3.org/2000/svg" xmlns:xlink="http://www.w3.org/1999/xlink" x="0px" y="0px" viewBox="0 0 100 125"
	 style="enable-background:new 0 0 100 125;" xml:space="preserve">
<g transform="translate(0,-952.36218)">
	<path d="M50,957.4c-13.8,0-25,11.2-25,25c0,8.4,3.9,16.1,10.4,20.7l11.8,30.4c0.6,1.6,2.3,2.3,3.9,1.8c0.8-0.3,1.5-0.9,1.8-1.8
		l11.8-30.4c6.5-4.6,10.4-12.3,10.4-20.7C75,968.6,63.8,957.4,50,957.4z M50,963.4c10.5,0,19,8.5,19,19c0,6.9-3.3,13.2-8.6,16.5
		c-0.6,0.3-1,0.8-1.2,1.4L50,1024l-9.2-23.7c-0.2-0.6-0.7-1.1-1.2-1.4c-5.3-3.3-8.6-9.6-8.6-16.5C31,971.8,39.5,963.4,50,963.4z
		 M50,969.4c-7.1,0-13,5.9-13,13s5.9,13,13,13s13-5.9,13-13S57.1,969.4,50,969.4z M50,975.4c3.9,0,7,3.1,7,7s-3.1,7-7,7s-7-3.1-7-7
		S46.1,975.4,50,975.4z M36.2,1018.3c-0.1,0-0.1,0-0.2,0c-6.5,0.9-12.2,2.5-16.4,4.7c-2.1,1.1-3.9,2.3-5.3,3.8s-2.4,3.5-2.4,5.6
		c0,2.8,1.7,5.2,3.9,7s5,3.2,8.4,4.3c6.8,2.3,15.8,3.7,25.7,3.7s18.9-1.4,25.7-3.7c3.4-1.2,6.2-2.5,8.4-4.3s3.9-4.2,3.9-7
		c0-2.1-1-4.1-2.4-5.6s-3.2-2.7-5.3-3.8c-4.2-2.1-9.9-3.7-16.4-4.7c-1.6-0.3-3.2,0.8-3.5,2.4c-0.3,1.6,0.8,3.2,2.4,3.5
		c0.1,0,0.1,0,0.2,0c6.1,0.9,11.2,2.4,14.5,4.1c1.7,0.8,2.9,1.8,3.6,2.5s0.8,1.2,0.8,1.6c0,0.5-0.3,1.2-1.6,2.3s-3.6,2.3-6.6,3.3
		c-5.9,2-14.4,3.3-23.8,3.3s-17.9-1.3-23.8-3.3c-2.9-1-5.2-2.2-6.6-3.3s-1.6-1.9-1.6-2.3c0-0.4,0.1-0.8,0.8-1.6s1.9-1.7,3.6-2.5
		c3.3-1.7,8.5-3.2,14.5-4.1c1.6-0.2,2.8-1.8,2.5-3.4c-0.2-1.4-1.4-2.5-2.9-2.6C36.5,1018.3,36.4,1018.3,36.2,1018.3z"/>
</g>
</svg>
