<?xml version="1.0" encoding="utf-8"?>
<!-- Generator: Adobe Illustrator 22.1.0, SVG Export Plug-In . SVG Version: 6.00 Build 0)  -->
<svg version="1.1" id="Calque_1" xmlns="http://www.w3.org/2000/svg" xmlns:xlink="http://www.w3.org/1999/xlink" x="0px" y="0px"
	 viewBox="0 0 1.6 2.8" style="enable-background:new 0 0 1.6 2.8;" xml:space="preserve">
<style type="text/css">
	.st0{enable-background:new    ;}
</style>
<g>
	<path d="M0.8,2.2H0.3c-0.1,0-0.2,0-0.2-0.1C0,2.1,0,2,0,1.9V1.6c0-0.1,0.1-0.3,0.1-0.4c0,0,0.1-0.1,0.1-0.1c0,0.1,0,0.1,0.1,0.1
		c0.1,0.1,0.1,0.2,0.2,0.3c0.1,0,0.2,0.1,0.3,0.1c0.1,0,0.2-0.1,0.3-0.1c0.1-0.1,0.2-0.2,0.2-0.3c0,0,0.1-0.1,0.1-0.1
		c0,0,0.1,0.1,0.1,0.1c0.1,0.1,0.1,0.2,0.1,0.4v0.3c0,0.1,0,0.2-0.1,0.2S1.4,2.2,1.3,2.2C1.3,2.2,0.8,2.2,0.8,2.2z M1,0.2L0.8,0
		c0,0,0,0,0,0c0,0,0,0,0,0L0.6,0.2L0.3,0.1c0,0-0.1,0-0.1,0c0,0,0,0,0,0l0.1,0.4V1c0,0.1,0,0.2,0.1,0.3c0.1,0.2,0.3,0.3,0.4,0.3
		s0.3-0.1,0.4-0.3c0-0.1,0.1-0.2,0.1-0.3V0.6l0.1-0.4c0,0,0,0,0,0c0,0,0,0-0.1,0C1.3,0.1,1,0.2,1,0.2z M0.8,0.6h0.4v0.3
		C1.2,1,1,1.3,0.8,1.1C0.6,1.3,0.4,1,0.4,0.9V0.6C0.4,0.6,0.8,0.6,0.8,0.6z"/>
</g>
</svg>
