<?xml version="1.0" encoding="utf-8"?>
<!-- Generator: Adobe Illustrator 22.1.0, SVG Export Plug-In . SVG Version: 6.00 Build 0)  -->
<svg version="1.1" id="Calque_1" xmlns="http://www.w3.org/2000/svg" xmlns:xlink="http://www.w3.org/1999/xlink" x="0px" y="0px"
	 viewBox="0 0 100 125" style="enable-background:new 0 0 100 125;" xml:space="preserve">
<title>Artboard 18</title>
<g>
	<path d="M89.1,34.4c2.1-2.5,3.2-5.7,3.2-9C92.3,15,88.3,7.9,81.3,5.8c-6.8-2-11.8,1-15.6,7C55.2,8.4,43.4,8.6,33,13.3
		c-5.5-8.5-11.3-7.6-11.5-7.7C13.4,5.7,6.3,12,6.4,26c0.1,3.6,1.4,7,3.9,9.6C0.1,55.7,3.2,83.5,32,92.1c15.9,4.8,36.3,3.4,49.4-6.5
		C97.6,73.4,98.2,51.3,89.1,34.4z M50.2,89.6C-11.5,90,6.4,15.2,49.7,14.9S112,89.1,50.2,89.6z"/>
	<path d="M44.2,39.7C41,34.9,31.8,37,24.9,41.6S14.1,53,19.8,63c5.9,10.1,10.8,0.3,14.6-3.9C39.6,53.3,52.6,52.1,44.2,39.7z"/>
	<path d="M75.1,41.6c-6.9-4.6-16-6.7-19.3-1.9c-8.4,12.4,4.6,13.6,9.8,19.4c3.8,4.2,8.8,14,14.6,3.9C86,53,82.1,46.2,75.1,41.6z"/>
	<path d="M51.1,66.5c0.1-0.9-0.8-2.4,4-5.3c0.4-0.3,0.5-1,0.2-1.4c-0.2-0.2-0.4-0.4-0.7-0.4h-8.8c-0.5,0.1-1,0.5-0.9,1.1
		c0,0.3,0.2,0.5,0.4,0.7c1.3,0.8,3.9,2.7,3.9,4.2c0,0.5,0,1-0.1,1.5c-0.5,1.5-2,2.4-3.5,2.3h-9.3c-0.1,7.5,5.9,13.7,13.5,13.8
		c0,0,0.1,0,0.1,0l0,0c7.6,0.1,13.8-6,13.8-13.6c0-0.1,0-0.1,0-0.2h-9C52.6,69.4,51.1,67.8,51.1,66.5z"/>
</g>
</svg>
