<?xml version="1.0" encoding="utf-8"?>
<!-- Generator: Adobe Illustrator 22.1.0, SVG Export Plug-In . SVG Version: 6.00 Build 0)  -->
<svg version="1.1" id="Calque_1" xmlns="http://www.w3.org/2000/svg" xmlns:xlink="http://www.w3.org/1999/xlink" x="0px" y="0px"
	 viewBox="0 0 100 125" style="enable-background:new 0 0 100 125;" xml:space="preserve">
<path d="M66.9,3.8H33.1c-5.5,0-9.9,4.5-9.9,9.9v72.4c0,5.5,4.5,9.9,9.9,9.9h33.9c5.5,0,9.9-4.5,9.9-9.9V13.8
	C76.9,8.3,72.4,3.8,66.9,3.8z M50,94.1c-2.5,0-4.6-2.1-4.6-4.6c0-2.5,2.1-4.6,4.6-4.6c2.5,0,4.6,2.1,4.6,4.6
	C54.6,92,52.5,94.1,50,94.1z M71.6,80.1c0,1.4-1.1,2.5-2.5,2.5H30.9c-1.4,0-2.5-1.1-2.5-2.5V19.9c0-1.4,1.1-2.5,2.5-2.5h38.1
	c1.4,0,2.5,1.1,2.5,2.5V80.1z"/>
</svg>
