<?xml version="1.0" encoding="utf-8"?>
<!-- Generator: Adobe Illustrator 22.1.0, SVG Export Plug-In . SVG Version: 6.00 Build 0)  -->
<svg version="1.1" id="Calque_1" xmlns="http://www.w3.org/2000/svg" xmlns:xlink="http://www.w3.org/1999/xlink" x="0px" y="0px"
	 viewBox="0 0 266 360" style="enable-background:new 0 0 266 360;" xml:space="preserve">
<g>
	<path d="M105,36c-4-3-7-5-11-7c13-39,66-39,79,0c-4,2-8,4-11,7c43-17,79,23,67,53c-9,1-18,3-26,8c82-15,80,88,17,88h-36l-37,36v54
		c0,17-28,17-28,0v-54l-37-36H47c-64,0-67-104,16-88c-7-5-16-7-26-8C25,58,63,19,105,36z M119,203v-18h-18L119,203z M166,185h-19v18
		L166,185z"/>
</g>
</svg>
